<svg width="39" height="29" viewBox="0 0 39 29" fill="none" xmlns="http://www.w3.org/2000/svg">
<g filter="url(#filter0_f_1_235)">
<path d="M32.0254 26.3972H7.54537C6.33295 26.3972 5.17019 25.9156 4.31288 25.0583C3.45557 24.2009 2.97394 23.0382 2.97394 21.8258V7.17433C2.97394 5.96192 3.45557 4.79915 4.31288 3.94185C5.17019 3.08454 6.33295 2.60291 7.54537 2.60291H32.0254C33.2378 2.60291 34.4005 3.08454 35.2579 3.94185C36.1152 4.79915 36.5968 5.96192 36.5968 7.17433V21.8258C36.5968 23.0382 36.1152 24.2009 35.2579 25.0583C34.4005 25.9156 33.2378 26.3972 32.0254 26.3972ZM7.54537 3.74576C6.63605 3.74576 5.76398 4.10699 5.121 4.74997C4.47802 5.39295 4.1168 6.26502 4.1168 7.17433V21.8258C4.1168 22.7351 4.47802 23.6071 5.121 24.2501C5.76398 24.8931 6.63605 25.2543 7.54537 25.2543H32.0254C32.9347 25.2543 33.8067 24.8931 34.4497 24.2501C35.0927 23.6071 35.4539 22.7351 35.4539 21.8258V7.17433C35.4539 6.26502 35.0927 5.39295 34.4497 4.74997C33.8067 4.10699 32.9347 3.74576 32.0254 3.74576H7.54537Z" fill="#C2DF54"/>
</g>
<g filter="url(#filter1_f_1_235)">
<path d="M19.7853 17.6887C18.7935 17.6944 17.8268 17.3776 17.031 16.7858L3.6824 6.67724C3.61045 6.63821 3.54773 6.58419 3.49848 6.51882C3.44922 6.45345 3.41458 6.37826 3.39691 6.29835C3.37923 6.21843 3.37893 6.13565 3.39602 6.05561C3.41312 5.97556 3.44721 5.90013 3.49598 5.8344C3.54476 5.76867 3.60709 5.71419 3.67875 5.67465C3.75041 5.6351 3.82973 5.61141 3.91134 5.60517C3.99295 5.59894 4.07495 5.61031 4.15178 5.63852C4.22861 5.66673 4.29849 5.71111 4.35668 5.76867L17.7167 15.8544C18.3122 16.3049 19.0385 16.5487 19.7853 16.5487C20.532 16.5487 21.2583 16.3049 21.8538 15.8544L35.2138 5.76867C35.2731 5.71927 35.3418 5.68239 35.4157 5.66026C35.4896 5.63812 35.5673 5.63119 35.6439 5.63988C35.7206 5.64856 35.7947 5.67269 35.8618 5.7108C35.9289 5.74891 35.9876 5.80021 36.0344 5.86162C36.0811 5.92303 36.1149 5.99326 36.1337 6.06809C36.1526 6.14292 36.1561 6.22079 36.144 6.29701C36.132 6.37322 36.1046 6.44621 36.0635 6.51156C36.0225 6.57691 35.9687 6.63327 35.9053 6.67724L22.5395 16.7858C21.7437 17.3776 20.777 17.6944 19.7853 17.6887Z" fill="#C2DF54"/>
</g>
<g filter="url(#filter2_f_1_235)">
<path d="M3.88263 24.0085C3.76791 24.007 3.65627 23.9711 3.56225 23.9053C3.46824 23.8396 3.39619 23.747 3.3555 23.6397C3.31481 23.5325 3.30736 23.4154 3.33411 23.3038C3.36086 23.1923 3.42058 23.0913 3.50549 23.0142L14.0141 13.637C14.1285 13.5362 14.2783 13.485 14.4304 13.4947C14.5826 13.5043 14.7247 13.574 14.8255 13.6885C14.9263 13.8029 14.9775 13.9527 14.9678 14.1048C14.9582 14.257 14.8885 14.3991 14.7741 14.4999L4.26549 23.8656C4.15984 23.9588 4.0235 24.0097 3.88263 24.0085ZM35.6883 24.0085C35.5475 24.0097 35.4111 23.9588 35.3055 23.8656L24.7969 14.4999C24.7364 14.4513 24.6864 14.391 24.65 14.3225C24.6136 14.254 24.5915 14.1788 24.5851 14.1015C24.5787 14.0242 24.5881 13.9464 24.6127 13.8729C24.6373 13.7993 24.6766 13.7316 24.7283 13.6737C24.7799 13.6158 24.8428 13.5691 24.9131 13.5363C24.9834 13.5035 25.0596 13.4854 25.1372 13.4831C25.2147 13.4807 25.2919 13.4941 25.3641 13.5226C25.4362 13.551 25.5018 13.5938 25.5569 13.6485L36.0655 23.0142C36.1782 23.1151 36.2463 23.2565 36.2549 23.4076C36.2635 23.5586 36.2118 23.7069 36.1112 23.8199C36.0578 23.8791 35.9926 23.9264 35.9197 23.9589C35.8469 23.9914 35.7681 24.0083 35.6883 24.0085Z" fill="#C2DF54"/>
</g>
<g filter="url(#filter3_f_1_235)">
<path d="M32.0254 26.3972H7.54537C6.33295 26.3972 5.17019 25.9156 4.31288 25.0583C3.45557 24.2009 2.97394 23.0382 2.97394 21.8258V7.17433C2.97394 5.96192 3.45557 4.79915 4.31288 3.94185C5.17019 3.08454 6.33295 2.60291 7.54537 2.60291H32.0254C33.2378 2.60291 34.4005 3.08454 35.2579 3.94185C36.1152 4.79915 36.5968 5.96192 36.5968 7.17433V21.8258C36.5968 23.0382 36.1152 24.2009 35.2579 25.0583C34.4005 25.9156 33.2378 26.3972 32.0254 26.3972ZM7.54537 3.74576C6.63605 3.74576 5.76398 4.10699 5.121 4.74997C4.47802 5.39295 4.1168 6.26502 4.1168 7.17433V21.8258C4.1168 22.7351 4.47802 23.6071 5.121 24.2501C5.76398 24.8931 6.63605 25.2543 7.54537 25.2543H32.0254C32.9347 25.2543 33.8067 24.8931 34.4497 24.2501C35.0927 23.6071 35.4539 22.7351 35.4539 21.8258V7.17433C35.4539 6.26502 35.0927 5.39295 34.4497 4.74997C33.8067 4.10699 32.9347 3.74576 32.0254 3.74576H7.54537Z" fill="#C2DF54"/>
</g>
<g filter="url(#filter4_f_1_235)">
<path d="M19.7853 17.6887C18.7935 17.6944 17.8268 17.3776 17.031 16.7858L3.6824 6.67724C3.61045 6.63821 3.54773 6.58419 3.49848 6.51882C3.44922 6.45345 3.41458 6.37826 3.39691 6.29835C3.37923 6.21843 3.37893 6.13565 3.39602 6.05561C3.41312 5.97556 3.44721 5.90013 3.49598 5.8344C3.54476 5.76867 3.60709 5.71419 3.67875 5.67465C3.75041 5.6351 3.82973 5.61141 3.91134 5.60517C3.99295 5.59894 4.07495 5.61031 4.15178 5.63852C4.22861 5.66673 4.29849 5.71111 4.35668 5.76867L17.7167 15.8544C18.3122 16.3049 19.0385 16.5487 19.7853 16.5487C20.532 16.5487 21.2583 16.3049 21.8538 15.8544L35.2138 5.76867C35.2731 5.71927 35.3418 5.68239 35.4157 5.66026C35.4896 5.63812 35.5673 5.63119 35.6439 5.63988C35.7206 5.64856 35.7947 5.67269 35.8618 5.7108C35.9289 5.74891 35.9876 5.80021 36.0344 5.86162C36.0811 5.92303 36.1149 5.99326 36.1337 6.06809C36.1526 6.14292 36.1561 6.22079 36.144 6.29701C36.132 6.37322 36.1046 6.44621 36.0635 6.51156C36.0225 6.57691 35.9687 6.63327 35.9053 6.67724L22.5395 16.7858C21.7437 17.3776 20.777 17.6944 19.7853 17.6887Z" fill="#C2DF54"/>
</g>
<g filter="url(#filter5_f_1_235)">
<path d="M3.88263 24.0085C3.76791 24.007 3.65627 23.9711 3.56225 23.9053C3.46824 23.8396 3.39619 23.747 3.3555 23.6397C3.31481 23.5325 3.30736 23.4154 3.33411 23.3038C3.36086 23.1923 3.42058 23.0913 3.50549 23.0142L14.0141 13.637C14.1285 13.5362 14.2783 13.485 14.4304 13.4947C14.5826 13.5043 14.7247 13.574 14.8255 13.6885C14.9263 13.8029 14.9775 13.9527 14.9678 14.1048C14.9582 14.257 14.8885 14.3991 14.7741 14.4999L4.26549 23.8656C4.15984 23.9588 4.0235 24.0097 3.88263 24.0085ZM35.6883 24.0085C35.5475 24.0097 35.4111 23.9588 35.3055 23.8656L24.7969 14.4999C24.7364 14.4513 24.6864 14.391 24.65 14.3225C24.6136 14.254 24.5915 14.1788 24.5851 14.1015C24.5787 14.0242 24.5881 13.9464 24.6127 13.8729C24.6373 13.7993 24.6766 13.7316 24.7283 13.6737C24.7799 13.6158 24.8428 13.5691 24.9131 13.5363C24.9834 13.5035 25.0596 13.4854 25.1372 13.4831C25.2147 13.4807 25.2919 13.4941 25.3641 13.5226C25.4362 13.551 25.5018 13.5938 25.5569 13.6485L36.0655 23.0142C36.1782 23.1151 36.2463 23.2565 36.2549 23.4076C36.2635 23.5586 36.2118 23.7069 36.1112 23.8199C36.0578 23.8791 35.9926 23.9264 35.9197 23.9589C35.8469 23.9914 35.7681 24.0083 35.6883 24.0085Z" fill="#C2DF54"/>
</g>
<path d="M32.0254 26.3972H7.54537C6.33295 26.3972 5.17019 25.9156 4.31288 25.0583C3.45557 24.2009 2.97394 23.0382 2.97394 21.8258V7.17433C2.97394 5.96192 3.45557 4.79915 4.31288 3.94185C5.17019 3.08454 6.33295 2.60291 7.54537 2.60291H32.0254C33.2378 2.60291 34.4005 3.08454 35.2579 3.94185C36.1152 4.79915 36.5968 5.96192 36.5968 7.17433V21.8258C36.5968 23.0382 36.1152 24.2009 35.2579 25.0583C34.4005 25.9156 33.2378 26.3972 32.0254 26.3972ZM7.54537 3.74576C6.63605 3.74576 5.76398 4.10699 5.121 4.74997C4.47802 5.39295 4.1168 6.26502 4.1168 7.17433V21.8258C4.1168 22.7351 4.47802 23.6071 5.121 24.2501C5.76398 24.8931 6.63605 25.2543 7.54537 25.2543H32.0254C32.9347 25.2543 33.8067 24.8931 34.4497 24.2501C35.0927 23.6071 35.4539 22.7351 35.4539 21.8258V7.17433C35.4539 6.26502 35.0927 5.39295 34.4497 4.74997C33.8067 4.10699 32.9347 3.74576 32.0254 3.74576H7.54537Z" fill="#C2DF54"/>
<path d="M19.7853 17.6887C18.7935 17.6944 17.8268 17.3776 17.031 16.7858L3.6824 6.67724C3.61045 6.63821 3.54773 6.58419 3.49848 6.51882C3.44922 6.45345 3.41458 6.37826 3.39691 6.29835C3.37923 6.21843 3.37893 6.13565 3.39602 6.05561C3.41312 5.97556 3.44721 5.90013 3.49598 5.8344C3.54476 5.76867 3.60709 5.71419 3.67875 5.67465C3.75041 5.6351 3.82973 5.61141 3.91134 5.60517C3.99295 5.59894 4.07495 5.61031 4.15178 5.63852C4.22861 5.66673 4.29849 5.71111 4.35668 5.76867L17.7167 15.8544C18.3122 16.3049 19.0385 16.5487 19.7853 16.5487C20.532 16.5487 21.2583 16.3049 21.8538 15.8544L35.2138 5.76867C35.2731 5.71927 35.3418 5.68239 35.4157 5.66026C35.4896 5.63812 35.5673 5.63119 35.6439 5.63988C35.7206 5.64856 35.7947 5.67269 35.8618 5.7108C35.9289 5.74891 35.9876 5.80021 36.0344 5.86162C36.0811 5.92303 36.1149 5.99326 36.1337 6.06809C36.1526 6.14292 36.1561 6.22079 36.144 6.29701C36.132 6.37322 36.1046 6.44621 36.0635 6.51156C36.0225 6.57691 35.9687 6.63327 35.9053 6.67724L22.5395 16.7858C21.7437 17.3776 20.777 17.6944 19.7853 17.6887Z" fill="#C2DF54"/>
<path d="M3.88263 24.0085C3.76791 24.007 3.65627 23.9711 3.56225 23.9053C3.46824 23.8396 3.39619 23.747 3.3555 23.6397C3.31481 23.5325 3.30736 23.4154 3.33411 23.3038C3.36086 23.1923 3.42058 23.0913 3.50549 23.0142L14.0141 13.637C14.1285 13.5362 14.2783 13.485 14.4304 13.4947C14.5826 13.5043 14.7247 13.574 14.8255 13.6885C14.9263 13.8029 14.9775 13.9527 14.9678 14.1048C14.9582 14.257 14.8885 14.3991 14.7741 14.4999L4.26549 23.8656C4.15984 23.9588 4.0235 24.0097 3.88263 24.0085ZM35.6883 24.0085C35.5475 24.0097 35.4111 23.9588 35.3055 23.8656L24.7969 14.4999C24.7364 14.4513 24.6864 14.391 24.65 14.3225C24.6136 14.254 24.5915 14.1788 24.5851 14.1015C24.5787 14.0242 24.5881 13.9464 24.6127 13.8729C24.6373 13.7993 24.6766 13.7316 24.7283 13.6737C24.7799 13.6158 24.8428 13.5691 24.9131 13.5363C24.9834 13.5035 25.0596 13.4854 25.1372 13.4831C25.2147 13.4807 25.2919 13.4941 25.3641 13.5226C25.4362 13.551 25.5018 13.5938 25.5569 13.6485L36.0655 23.0142C36.1782 23.1151 36.2463 23.2565 36.2549 23.4076C36.2635 23.5586 36.2118 23.7069 36.1112 23.8199C36.0578 23.8791 35.9926 23.9264 35.9197 23.9589C35.8469 23.9914 35.7681 24.0083 35.6883 24.0085Z" fill="#C2DF54"/>
<defs>
<filter id="filter0_f_1_235" x="0.973938" y="0.602905" width="37.6229" height="27.7943" filterUnits="userSpaceOnUse" color-interpolation-filters="sRGB">
<feFlood flood-opacity="0" result="BackgroundImageFix"/>
<feBlend mode="normal" in="SourceGraphic" in2="BackgroundImageFix" result="shape"/>
<feGaussianBlur stdDeviation="1" result="effect1_foregroundBlur_1_235"/>
</filter>
<filter id="filter1_f_1_235" x="1.38342" y="3.60352" width="36.7676" height="16.0852" filterUnits="userSpaceOnUse" color-interpolation-filters="sRGB">
<feFlood flood-opacity="0" result="BackgroundImageFix"/>
<feBlend mode="normal" in="SourceGraphic" in2="BackgroundImageFix" result="shape"/>
<feGaussianBlur stdDeviation="1" result="effect1_foregroundBlur_1_235"/>
</filter>
<filter id="filter2_f_1_235" x="1.31836" y="11.4828" width="36.9374" height="14.5256" filterUnits="userSpaceOnUse" color-interpolation-filters="sRGB">
<feFlood flood-opacity="0" result="BackgroundImageFix"/>
<feBlend mode="normal" in="SourceGraphic" in2="BackgroundImageFix" result="shape"/>
<feGaussianBlur stdDeviation="1" result="effect1_foregroundBlur_1_235"/>
</filter>
<filter id="filter3_f_1_235" x="1.97394" y="1.60291" width="35.6229" height="25.7943" filterUnits="userSpaceOnUse" color-interpolation-filters="sRGB">
<feFlood flood-opacity="0" result="BackgroundImageFix"/>
<feBlend mode="normal" in="SourceGraphic" in2="BackgroundImageFix" result="shape"/>
<feGaussianBlur stdDeviation="0.5" result="effect1_foregroundBlur_1_235"/>
</filter>
<filter id="filter4_f_1_235" x="2.38342" y="4.60352" width="34.7676" height="14.0852" filterUnits="userSpaceOnUse" color-interpolation-filters="sRGB">
<feFlood flood-opacity="0" result="BackgroundImageFix"/>
<feBlend mode="normal" in="SourceGraphic" in2="BackgroundImageFix" result="shape"/>
<feGaussianBlur stdDeviation="0.5" result="effect1_foregroundBlur_1_235"/>
</filter>
<filter id="filter5_f_1_235" x="2.31836" y="12.4828" width="34.9374" height="12.5256" filterUnits="userSpaceOnUse" color-interpolation-filters="sRGB">
<feFlood flood-opacity="0" result="BackgroundImageFix"/>
<feBlend mode="normal" in="SourceGraphic" in2="BackgroundImageFix" result="shape"/>
<feGaussianBlur stdDeviation="0.5" result="effect1_foregroundBlur_1_235"/>
</filter>
</defs>
</svg>
