<svg width="260" height="103" viewBox="0 0 260 103" fill="none" xmlns="http://www.w3.org/2000/svg">
<path fill-rule="evenodd" clip-rule="evenodd" d="M212.693 61.4769C197.326 61.1467 181.798 61.6121 166.289 61.7691C145.28 61.9807 124.233 61.9218 103.267 62.5199C88.9562 62.9269 74.6589 63.0411 60.3537 63.2126C55.5853 63.2699 50.791 63.0718 46.0359 62.9223C42.4416 62.809 38.8061 63.0667 35.2478 62.8238C32.2582 62.6209 29.763 62.2332 28.6895 61.2375C28.1657 60.7516 28.7745 60.5054 30.2474 60.4205C30.7665 60.3915 31.3158 60.4034 31.8436 60.4139C47.4751 60.7231 63.1527 60.5199 78.8109 60.4312C92.1966 60.3552 105.587 60.1835 118.972 59.9846C135.303 59.7423 151.636 59.5205 167.971 59.4389C177.465 59.3915 186.962 59.4951 196.449 59.3913C202.736 59.3218 208.975 59.609 215.257 59.4045C215.658 59.3928 216.061 59.3976 216.456 59.4187C218.216 59.507 220.025 60.0086 219.501 60.3839C218.932 60.7883 218.403 61.3517 216.446 61.3951C215.241 61.4216 214.039 61.4481 212.693 61.4773" fill="#C2DF54"/>
<path d="M42.3233 15.4323H50.4678C50.6218 15.4323 50.7694 15.4969 50.8783 15.612C50.9872 15.727 51.0484 15.883 51.0484 16.0456V19.4896C51.0482 19.6097 51.0841 19.7268 51.1511 19.8239C51.218 19.921 51.3125 19.993 51.4208 20.0296C51.5291 20.0662 51.6457 20.0654 51.7535 20.0273C51.8614 19.9893 51.955 19.9159 52.0208 19.8179C54.0463 16.6358 57.2167 14.6238 62.5975 14.6238C72.5456 14.6238 80.4764 23.6611 80.4764 34.683C80.4764 45.7049 72.5414 54.5947 62.5934 54.5947C57.3303 54.5947 54.1791 52.684 52.155 49.6768C52.0913 49.5777 51.9992 49.5027 51.8922 49.4629C51.7853 49.423 51.669 49.4203 51.5605 49.4552C51.452 49.4901 51.3569 49.5608 51.2892 49.6569C51.2214 49.753 51.1846 49.8695 51.184 49.9893V67.7675C51.184 67.9165 51.1281 68.0594 51.0285 68.1648C50.9288 68.2703 50.7937 68.3298 50.6526 68.3302H42.3233C42.1822 68.3298 42.0471 68.2703 41.9475 68.1648C41.8479 68.0594 41.7919 67.9165 41.7919 67.7675V15.9849C41.7941 15.8375 41.851 15.697 41.9504 15.5936C42.0499 15.4903 42.1838 15.4323 42.3233 15.4323ZM61.0622 45.6369C67.0456 45.6369 71.0802 40.4196 71.0802 34.615C71.0802 28.6629 67.0456 23.5932 61.0622 23.5932C54.8707 23.5932 50.906 28.7367 50.906 34.6888C50.906 40.6409 54.8707 45.6369 61.0622 45.6369Z" fill="#383838"/>
<path d="M81.9277 34.6018C81.9277 23.5799 89.9982 14.5425 101.198 14.5425C112.398 14.5425 120.47 23.5799 120.47 34.6018C120.47 45.6237 112.399 54.5873 101.198 54.5873C89.9969 54.5873 81.9277 45.6295 81.9277 34.6018ZM101.198 45.5499C107.181 45.5499 111.078 40.5539 111.078 34.6018C111.078 28.6497 107.181 23.5799 101.198 23.5799C95.2147 23.5799 91.3198 28.6497 91.3198 34.6018C91.3198 40.5539 95.2161 45.5499 101.198 45.5499Z" fill="#383838"/>
<path d="M120.015 47.5172L125.548 42.1885C125.599 42.1391 125.66 42.1009 125.725 42.0761C125.791 42.0513 125.86 42.0404 125.93 42.044C126 42.0476 126.068 42.0657 126.131 42.0972C126.194 42.1287 126.25 42.173 126.297 42.2276C128.835 45.106 131.501 46.5134 134.426 46.5134C137.627 46.5134 139.436 44.8225 139.436 42.5458C139.436 40.5613 138.532 39.4591 132.827 38.0618C123.157 35.6361 121.695 31.0075 121.695 26.1576C121.695 19.4721 126.705 14.4747 135.192 14.4747C140.859 14.4747 144.694 15.9211 148.283 20.6365C148.327 20.6953 148.36 20.7626 148.379 20.8348C148.398 20.9069 148.403 20.9823 148.394 21.0567C148.385 21.131 148.363 21.2027 148.327 21.2677C148.292 21.3326 148.245 21.3895 148.188 21.435L142.254 26.2328C142.196 26.2787 142.129 26.3114 142.058 26.3291C141.987 26.3467 141.913 26.3488 141.841 26.3352C141.77 26.3217 141.701 26.2928 141.64 26.2503C141.579 26.2078 141.527 26.1526 141.488 26.0882C139.798 23.5178 137.691 22.4721 135.401 22.4721C132.827 22.4721 130.882 23.5019 130.882 25.8524C130.882 27.1759 131.438 28.3504 135.751 29.5264C146.256 32.3918 148.691 36.5069 148.691 42.2377C148.691 49.292 142.638 54.5816 134.639 54.5816C128.71 54.5816 123.892 52.5161 119.993 48.3171C119.896 48.2078 119.844 48.0623 119.848 47.9124C119.852 47.7625 119.912 47.6204 120.015 47.5172Z" fill="#383838"/>
<path d="M154.68 41.8092V24.4433C154.68 24.2944 154.624 24.1517 154.524 24.0464C154.424 23.9412 154.289 23.882 154.148 23.882H150.133C149.992 23.8817 149.857 23.8222 149.757 23.7167C149.657 23.6113 149.602 23.4684 149.602 23.3194V15.9931C149.602 15.8443 149.658 15.7016 149.757 15.5963C149.857 15.4911 149.992 15.4319 150.133 15.4319H154.143C154.284 15.4315 154.419 15.3721 154.519 15.2666C154.618 15.1611 154.674 15.0182 154.674 14.8693V8.22286C154.674 8.08402 154.723 7.95009 154.811 7.84697C154.899 7.74385 155.02 7.67885 155.151 7.66454L163.48 6.75183C163.554 6.7429 163.629 6.75054 163.7 6.77425C163.771 6.79797 163.837 6.83723 163.893 6.88949C163.949 6.94174 163.993 7.00582 164.024 7.07755C164.055 7.14927 164.071 7.22705 164.072 7.30582V14.8649C164.072 15.0139 164.128 15.1568 164.227 15.2623C164.327 15.3678 164.462 15.4272 164.603 15.4276H171.193C171.263 15.4276 171.332 15.4421 171.396 15.4703C171.461 15.4985 171.52 15.5399 171.569 15.592C171.618 15.6441 171.657 15.7059 171.684 15.774C171.711 15.8421 171.725 15.9151 171.725 15.9888V23.315C171.725 23.464 171.669 23.6069 171.569 23.7124C171.469 23.8179 171.334 23.8773 171.193 23.8777H164.603C164.462 23.8777 164.327 23.9368 164.227 24.0421C164.128 24.1473 164.072 24.2901 164.072 24.4389V41.2972C164.072 43.7214 165.185 44.8236 166.993 44.8236H170.358C170.428 44.8236 170.497 44.8381 170.561 44.8664C170.626 44.8946 170.684 44.9359 170.733 44.988C170.783 45.0401 170.822 45.102 170.849 45.1701C170.875 45.2382 170.889 45.3111 170.889 45.3848V53.0799C170.889 53.1536 170.875 53.2266 170.849 53.2947C170.822 53.3628 170.783 53.4246 170.733 53.4768C170.684 53.5289 170.626 53.5702 170.561 53.5984C170.497 53.6266 170.428 53.6411 170.358 53.6411H165.741C158.576 53.6397 154.68 50.1205 154.68 41.8092Z" fill="#383838"/>
<path d="M175.38 15.432H183.431C183.572 15.432 183.707 15.4911 183.807 15.5964C183.906 15.7016 183.962 15.8444 183.962 15.9932V19.5399C183.963 19.6659 184.003 19.7882 184.077 19.887C184.151 19.9857 184.255 20.0552 184.371 20.0842C184.487 20.1131 184.609 20.0998 184.717 20.0465C184.825 19.9931 184.913 19.9028 184.966 19.7901C186.679 16.2738 189.881 14.3935 194.646 14.5265C194.785 14.5318 194.916 14.5937 195.012 14.6992C195.109 14.8047 195.162 14.9455 195.162 15.0921V23.3194C195.162 23.3933 195.149 23.4664 195.122 23.5347C195.096 23.6029 195.056 23.665 195.007 23.7172C194.958 23.7695 194.899 23.811 194.835 23.8393C194.77 23.8675 194.701 23.8821 194.631 23.8821H193.841C188.415 23.8821 184.24 27.7022 184.24 34.0954V53.0785C184.24 53.2274 184.184 53.3701 184.085 53.4754C183.985 53.5806 183.85 53.6398 183.709 53.6398H175.38C175.31 53.6398 175.241 53.6252 175.176 53.597C175.112 53.5688 175.053 53.5275 175.004 53.4754C174.955 53.4233 174.915 53.3614 174.889 53.2933C174.862 53.2252 174.848 53.1522 174.848 53.0785V15.9932C174.848 15.9195 174.862 15.8465 174.889 15.7784C174.915 15.7104 174.955 15.6485 175.004 15.5964C175.053 15.5443 175.112 15.5029 175.176 15.4747C175.241 15.4465 175.31 15.432 175.38 15.432Z" fill="#383838"/>
<path d="M214.546 7.8e-08H217.239C217.38 -4.14259e-07 217.515 0.0590817 217.615 0.164289C217.715 0.269497 217.771 0.412242 217.772 0.56122V7.88311C217.771 8.03209 217.715 8.17483 217.615 8.28004C217.515 8.38525 217.38 8.44433 217.239 8.44433H215.335C212.554 8.44433 211.227 9.98768 211.227 12.9992V14.8622C211.227 15.0112 211.283 15.1541 211.382 15.2595C211.482 15.365 211.617 15.4245 211.758 15.4249H218.07C218.14 15.4249 218.209 15.4394 218.273 15.4676C218.338 15.4958 218.397 15.5371 218.446 15.5892C218.495 15.6413 218.534 15.7032 218.561 15.7713C218.588 15.8394 218.601 15.9124 218.601 15.9861V23.3123C218.602 23.4613 218.546 23.6042 218.446 23.7097C218.346 23.8151 218.211 23.8746 218.07 23.875H211.758C211.617 23.875 211.482 23.9341 211.382 24.0394C211.283 24.1446 211.227 24.2873 211.227 24.4362V53.0757C211.227 53.2246 211.171 53.3673 211.071 53.4726C210.971 53.5778 210.836 53.637 210.695 53.637H202.371C202.231 53.637 202.095 53.5778 201.996 53.4726C201.896 53.3673 201.84 53.2246 201.84 53.0757V24.4362C201.84 24.3624 201.826 24.2893 201.8 24.2211C201.773 24.1529 201.733 24.091 201.684 24.0388C201.635 23.9867 201.576 23.9454 201.511 23.9173C201.447 23.8892 201.377 23.8748 201.307 23.875H197.292C197.151 23.8746 197.016 23.8151 196.916 23.7097C196.817 23.6042 196.761 23.4613 196.761 23.3123V15.9919C196.761 15.843 196.817 15.7003 196.916 15.595C197.016 15.4898 197.151 15.4306 197.292 15.4306H201.307C201.377 15.4306 201.447 15.4161 201.511 15.3878C201.576 15.3595 201.635 15.3181 201.684 15.2658C201.734 15.2136 201.773 15.1516 201.8 15.0833C201.826 15.015 201.84 14.9419 201.84 14.868V13.4215C201.84 11.659 202.168 9.91367 202.807 8.28522C203.445 6.65677 204.381 5.1771 205.561 3.93074C206.741 2.68438 208.142 1.69574 209.683 1.02129C211.225 0.346849 212.878 -0.000189952 214.546 7.8e-08Z" fill="#383838"/>
<path d="M221.106 67.7705L222.339 59.3812C222.35 59.3052 222.377 59.2327 222.416 59.1679C222.455 59.1031 222.507 59.0475 222.567 59.0044C222.628 58.9614 222.696 58.9318 222.767 58.9175C222.839 58.9032 222.913 58.9044 222.984 58.9212C224.196 59.1865 225.432 59.3136 226.67 59.3002C230.287 59.3002 232.582 56.8745 233.627 53.4941L234.055 52.0737C234.093 51.9477 234.088 51.8113 234.04 51.689L220.091 16.2121C220.057 16.1269 220.044 16.0341 220.052 15.942C220.06 15.85 220.09 15.7616 220.139 15.6846C220.187 15.6077 220.253 15.5447 220.33 15.5012C220.408 15.4577 220.494 15.4351 220.582 15.4354H230.745C230.855 15.4355 230.964 15.4722 231.054 15.5404C231.144 15.6086 231.211 15.7049 231.247 15.8158L238.152 37.2578C238.525 38.3528 238.874 39.6054 239.168 40.858C239.197 40.9792 239.263 41.0868 239.356 41.1637C239.45 41.2406 239.564 41.2824 239.683 41.2824C239.801 41.2824 239.916 41.2406 240.009 41.1637C240.102 41.0868 240.168 40.9792 240.197 40.858C240.478 39.6406 240.817 38.439 241.213 37.2578L248.117 15.8158C248.153 15.7049 248.22 15.6086 248.31 15.5404C248.4 15.4722 248.509 15.4355 248.619 15.4354H258.573C258.66 15.4352 258.747 15.4579 258.824 15.5013C258.901 15.5448 258.967 15.6078 259.016 15.6847C259.064 15.7615 259.094 15.8499 259.103 15.9419C259.111 16.0339 259.098 16.1267 259.065 16.2121L243.37 56.0674C240.308 63.7827 235.786 69 227.299 69C225.569 69 223.31 68.8756 221.496 68.3968C221.369 68.3619 221.259 68.2786 221.187 68.1629C221.115 68.0472 221.086 67.9074 221.106 67.7705Z" fill="#383838"/>
<path d="M38.7173 15.919V54.0255C38.7173 54.1702 38.6629 54.3089 38.5661 54.4111C38.4693 54.5134 38.3379 54.5708 38.201 54.5708H23.3501C23.324 54.5709 23.2985 54.5626 23.277 54.547C23.2554 54.5315 23.2389 54.5094 23.2295 54.4836C23.2202 54.4579 23.2185 54.4298 23.2246 54.403C23.2307 54.3762 23.2444 54.352 23.2638 54.3336L25.8248 51.9152C29.217 48.7127 31.5562 44.4052 32.2614 39.658C32.2925 39.442 32.3213 39.2265 32.3477 39.0115C32.6285 36.6841 32.4682 35.1654 32.4682 35.1654C32.424 33.313 31.8566 31.5168 30.8389 30.0074C29.8212 28.498 28.3997 27.3443 26.7567 26.6943C25.1138 26.0443 23.3244 25.9277 21.6183 26.3595C19.9121 26.7913 18.3671 27.7517 17.1815 29.1176C15.9958 30.4834 15.2237 32.1923 14.9642 34.0249C14.7047 35.8575 14.9697 37.7302 15.7251 39.4026C16.4805 41.075 17.6919 42.4709 19.2038 43.411C20.7156 44.3511 22.459 44.7925 24.2101 44.6786C24.2805 44.6739 24.351 44.6844 24.4173 44.7096C24.4836 44.7348 24.5443 44.7741 24.5957 44.8251C24.647 44.8761 24.6879 44.9377 24.7158 45.006C24.7437 45.0744 24.7581 45.148 24.7579 45.2225C24.7196 49.4562 21.2739 53.2546 19.6141 54.2266C19.358 54.3712 19.1073 54.5376 18.8143 54.552C18.5212 54.5665 18.2103 54.5708 17.8994 54.5708C7.93902 54.5708 0 45.6709 0 34.6432C0 23.6155 7.94313 14.5651 17.8981 14.5651C23.9129 14.5651 27.1696 17.0718 29.1431 20.9165C29.1596 20.9384 29.1817 20.9548 29.2069 20.9637C29.2321 20.9726 29.2591 20.9736 29.2848 20.9665C29.3105 20.9595 29.3336 20.9447 29.3515 20.924C29.3694 20.9033 29.3812 20.8776 29.3855 20.8499V15.919C29.3853 15.8473 29.3985 15.7762 29.4244 15.7099C29.4503 15.6436 29.4883 15.5833 29.5362 15.5325C29.5842 15.4817 29.6412 15.4414 29.7039 15.4139C29.7666 15.3864 29.8339 15.3723 29.9018 15.3723H38.201C38.2689 15.3723 38.3362 15.3864 38.3989 15.4139C38.4616 15.4414 38.5186 15.4817 38.5666 15.5325C38.6145 15.5833 38.6525 15.6436 38.6784 15.7099C38.7043 15.7762 38.7175 15.8473 38.7173 15.919Z" fill="#383838"/>
<path d="M24.8078 99.24C23.5758 99.24 22.4878 98.96 21.5438 98.4C20.6158 97.84 19.8878 97.056 19.3598 96.048C18.8318 95.04 18.5678 93.888 18.5678 92.592C18.5678 91.312 18.8318 90.176 19.3598 89.184C19.9038 88.176 20.6478 87.384 21.5918 86.808C22.5358 86.232 23.6078 85.944 24.8078 85.944C25.9118 85.944 26.9118 86.184 27.8078 86.664C28.7038 87.128 29.4318 87.792 29.9918 88.656C30.5518 89.504 30.8958 90.504 31.0238 91.656H27.5198C27.4398 90.808 27.1518 90.136 26.6558 89.64C26.1758 89.144 25.5598 88.896 24.8078 88.896C24.2318 88.896 23.7278 89.048 23.2958 89.352C22.8798 89.656 22.5518 90.08 22.3118 90.624C22.0878 91.168 21.9758 91.824 21.9758 92.592C21.9758 93.344 22.0878 94 22.3118 94.56C22.5518 95.12 22.8798 95.552 23.2958 95.856C23.7278 96.144 24.2318 96.288 24.8078 96.288C25.5758 96.288 26.1918 96.048 26.6558 95.568C27.1358 95.072 27.4238 94.392 27.5198 93.528H31.0238C30.9118 94.696 30.5758 95.712 30.0158 96.576C29.4558 97.424 28.7358 98.08 27.8558 98.544C26.9758 99.008 25.9598 99.24 24.8078 99.24ZM38.7827 99.24C37.8547 99.24 36.9907 99.072 36.1907 98.736C35.4067 98.4 34.7187 97.928 34.1267 97.32C33.5507 96.712 33.0947 96.008 32.7587 95.208C32.4387 94.392 32.2787 93.52 32.2787 92.592C32.2787 91.648 32.4387 90.776 32.7587 89.976C33.0947 89.176 33.5507 88.472 34.1267 87.864C34.7187 87.256 35.4067 86.784 36.1907 86.448C36.9907 86.112 37.8547 85.944 38.7827 85.944C39.7107 85.944 40.5667 86.112 41.3507 86.448C42.1507 86.784 42.8387 87.256 43.4147 87.864C44.0067 88.472 44.4627 89.176 44.7827 89.976C45.1187 90.776 45.2867 91.648 45.2867 92.592C45.2867 93.52 45.1187 94.392 44.7827 95.208C44.4627 96.008 44.0067 96.712 43.4147 97.32C42.8387 97.928 42.1507 98.4 41.3507 98.736C40.5667 99.072 39.7107 99.24 38.7827 99.24ZM38.7827 96.288C39.3427 96.288 39.8547 96.144 40.3187 95.856C40.7827 95.568 41.1507 95.152 41.4227 94.608C41.7107 94.048 41.8547 93.376 41.8547 92.592C41.8547 91.792 41.7107 91.12 41.4227 90.576C41.1507 90.032 40.7827 89.624 40.3187 89.352C39.8547 89.064 39.3427 88.92 38.7827 88.92C38.2387 88.92 37.7267 89.064 37.2467 89.352C36.7827 89.624 36.4067 90.032 36.1187 90.576C35.8467 91.12 35.7107 91.792 35.7107 92.592C35.7107 93.376 35.8467 94.048 36.1187 94.608C36.4067 95.152 36.7827 95.568 37.2467 95.856C37.7267 96.144 38.2387 96.288 38.7827 96.288ZM50.7516 92.016V99H47.4156V86.184H50.4876V88.008C50.9676 87.368 51.5276 86.864 52.1676 86.496C52.8236 86.128 53.5756 85.944 54.4236 85.944C55.7196 85.944 56.7676 86.36 57.5676 87.192C58.3676 88.008 58.7676 89.184 58.7676 90.72V99H55.4556V91.848C55.4556 90.888 55.2636 90.16 54.8796 89.664C54.5116 89.152 53.9516 88.896 53.1996 88.896C52.7516 88.896 52.3356 89.016 51.9516 89.256C51.5836 89.48 51.2876 89.824 51.0636 90.288C50.8556 90.736 50.7516 91.312 50.7516 92.016ZM64.9782 92.016V99H61.6422V86.184H64.7142V88.008C65.1942 87.368 65.7542 86.864 66.3942 86.496C67.0502 86.128 67.8022 85.944 68.6502 85.944C69.9462 85.944 70.9942 86.36 71.7942 87.192C72.5942 88.008 72.9942 89.184 72.9942 90.72V99H69.6822V91.848C69.6822 90.888 69.4902 90.16 69.1062 89.664C68.7382 89.152 68.1782 88.896 67.4262 88.896C66.9782 88.896 66.5622 89.016 66.1782 89.256C65.8102 89.48 65.5142 89.824 65.2902 90.288C65.0822 90.736 64.9782 91.312 64.9782 92.016ZM81.4367 99.216C80.1567 99.216 79.0287 98.944 78.0527 98.4C77.0927 97.84 76.3487 97.056 75.8207 96.048C75.2927 95.04 75.0287 93.872 75.0287 92.544C75.0287 91.264 75.3007 90.128 75.8447 89.136C76.3887 88.144 77.1407 87.368 78.1007 86.808C79.0607 86.232 80.1567 85.944 81.3887 85.944C82.3967 85.944 83.3087 86.136 84.1247 86.52C84.9567 86.888 85.6527 87.416 86.2127 88.104C86.7727 88.792 87.1727 89.592 87.4127 90.504C87.6527 91.4 87.6927 92.368 87.5327 93.408H76.9967V91.296H84.0047C83.9727 90.4 83.7087 89.696 83.2127 89.184C82.7327 88.656 82.1007 88.392 81.3167 88.392C80.6927 88.392 80.1647 88.552 79.7327 88.872C79.3007 89.192 78.9647 89.664 78.7247 90.288C78.5007 90.896 78.3887 91.648 78.3887 92.544C78.3887 93.424 78.5007 94.168 78.7247 94.776C78.9487 95.384 79.2847 95.848 79.7327 96.168C80.1807 96.488 80.7247 96.648 81.3647 96.648C82.1007 96.648 82.7087 96.472 83.1887 96.12C83.6687 95.768 84.0047 95.28 84.1967 94.656H87.5087C87.1407 96.096 86.4287 97.216 85.3727 98.016C84.3167 98.816 83.0047 99.216 81.4367 99.216ZM94.9328 99.24C93.7008 99.24 92.6128 98.96 91.6688 98.4C90.7408 97.84 90.0128 97.056 89.4848 96.048C88.9568 95.04 88.6928 93.888 88.6928 92.592C88.6928 91.312 88.9568 90.176 89.4848 89.184C90.0288 88.176 90.7728 87.384 91.7168 86.808C92.6608 86.232 93.7328 85.944 94.9328 85.944C96.0368 85.944 97.0368 86.184 97.9328 86.664C98.8288 87.128 99.5568 87.792 100.117 88.656C100.677 89.504 101.021 90.504 101.149 91.656H97.6448C97.5648 90.808 97.2768 90.136 96.7808 89.64C96.3008 89.144 95.6848 88.896 94.9328 88.896C94.3568 88.896 93.8528 89.048 93.4208 89.352C93.0048 89.656 92.6768 90.08 92.4368 90.624C92.2128 91.168 92.1008 91.824 92.1008 92.592C92.1008 93.344 92.2128 94 92.4368 94.56C92.6768 95.12 93.0048 95.552 93.4208 95.856C93.8528 96.144 94.3568 96.288 94.9328 96.288C95.7008 96.288 96.3168 96.048 96.7808 95.568C97.2608 95.072 97.5488 94.392 97.6448 93.528H101.149C101.037 94.696 100.701 95.712 100.141 96.576C99.5808 97.424 98.8608 98.08 97.9808 98.544C97.1008 99.008 96.0848 99.24 94.9328 99.24ZM111.259 95.76V98.664C110.859 98.872 110.451 99.016 110.035 99.096C109.635 99.192 109.187 99.24 108.691 99.24C107.827 99.24 107.067 99.08 106.411 98.76C105.771 98.424 105.275 97.928 104.923 97.272C104.571 96.6 104.395 95.792 104.395 94.848V89.04H101.803V86.184H104.395V82.392H107.707V86.184H111.379V89.04H107.707V94.08C107.707 94.816 107.867 95.352 108.187 95.688C108.523 96.008 108.987 96.168 109.579 96.168C109.899 96.168 110.203 96.136 110.491 96.072C110.779 95.992 111.035 95.888 111.259 95.76ZM130.136 99.24C128.904 99.24 127.816 98.96 126.872 98.4C125.944 97.84 125.216 97.056 124.688 96.048C124.16 95.04 123.896 93.888 123.896 92.592C123.896 91.312 124.16 90.176 124.688 89.184C125.232 88.176 125.976 87.384 126.92 86.808C127.864 86.232 128.936 85.944 130.136 85.944C131.24 85.944 132.24 86.184 133.136 86.664C134.032 87.128 134.76 87.792 135.32 88.656C135.88 89.504 136.224 90.504 136.352 91.656H132.848C132.768 90.808 132.48 90.136 131.984 89.64C131.504 89.144 130.888 88.896 130.136 88.896C129.56 88.896 129.056 89.048 128.624 89.352C128.208 89.656 127.88 90.08 127.64 90.624C127.416 91.168 127.304 91.824 127.304 92.592C127.304 93.344 127.416 94 127.64 94.56C127.88 95.12 128.208 95.552 128.624 95.856C129.056 96.144 129.56 96.288 130.136 96.288C130.904 96.288 131.52 96.048 131.984 95.568C132.464 95.072 132.752 94.392 132.848 93.528H136.352C136.24 94.696 135.904 95.712 135.344 96.576C134.784 97.424 134.064 98.08 133.184 98.544C132.304 99.008 131.288 99.24 130.136 99.24ZM144.111 99.24C143.183 99.24 142.319 99.072 141.519 98.736C140.735 98.4 140.047 97.928 139.455 97.32C138.879 96.712 138.423 96.008 138.087 95.208C137.767 94.392 137.607 93.52 137.607 92.592C137.607 91.648 137.767 90.776 138.087 89.976C138.423 89.176 138.879 88.472 139.455 87.864C140.047 87.256 140.735 86.784 141.519 86.448C142.319 86.112 143.183 85.944 144.111 85.944C145.039 85.944 145.895 86.112 146.679 86.448C147.479 86.784 148.167 87.256 148.743 87.864C149.335 88.472 149.791 89.176 150.111 89.976C150.447 90.776 150.615 91.648 150.615 92.592C150.615 93.52 150.447 94.392 150.111 95.208C149.791 96.008 149.335 96.712 148.743 97.32C148.167 97.928 147.479 98.4 146.679 98.736C145.895 99.072 145.039 99.24 144.111 99.24ZM144.111 96.288C144.671 96.288 145.183 96.144 145.647 95.856C146.111 95.568 146.479 95.152 146.751 94.608C147.039 94.048 147.183 93.376 147.183 92.592C147.183 91.792 147.039 91.12 146.751 90.576C146.479 90.032 146.111 89.624 145.647 89.352C145.183 89.064 144.671 88.92 144.111 88.92C143.567 88.92 143.055 89.064 142.575 89.352C142.111 89.624 141.735 90.032 141.447 90.576C141.175 91.12 141.039 91.792 141.039 92.592C141.039 93.376 141.175 94.048 141.447 94.608C141.735 95.152 142.111 95.568 142.575 95.856C143.055 96.144 143.567 96.288 144.111 96.288ZM159.67 93.888H152.35V90.912H159.67V93.888ZM167.636 99.24C166.404 99.24 165.316 98.96 164.372 98.4C163.444 97.84 162.716 97.056 162.188 96.048C161.66 95.04 161.396 93.888 161.396 92.592C161.396 91.312 161.66 90.176 162.188 89.184C162.732 88.176 163.476 87.384 164.42 86.808C165.364 86.232 166.436 85.944 167.636 85.944C168.74 85.944 169.74 86.184 170.636 86.664C171.532 87.128 172.26 87.792 172.82 88.656C173.38 89.504 173.724 90.504 173.852 91.656H170.348C170.268 90.808 169.98 90.136 169.484 89.64C169.004 89.144 168.388 88.896 167.636 88.896C167.06 88.896 166.556 89.048 166.124 89.352C165.708 89.656 165.38 90.08 165.14 90.624C164.916 91.168 164.804 91.824 164.804 92.592C164.804 93.344 164.916 94 165.14 94.56C165.38 95.12 165.708 95.552 166.124 95.856C166.556 96.144 167.06 96.288 167.636 96.288C168.404 96.288 169.02 96.048 169.484 95.568C169.964 95.072 170.252 94.392 170.348 93.528H173.852C173.74 94.696 173.404 95.712 172.844 96.576C172.284 97.424 171.564 98.08 170.684 98.544C169.804 99.008 168.788 99.24 167.636 99.24ZM179.33 92.784V99H175.994V86.184H179.066V88.656C179.546 87.84 180.242 87.2 181.154 86.736C182.066 86.272 183.034 86.04 184.058 86.04V89.496C183.13 89.432 182.306 89.48 181.586 89.64C180.882 89.784 180.33 90.112 179.93 90.624C179.53 91.12 179.33 91.84 179.33 92.784ZM191.265 99.216C189.985 99.216 188.857 98.944 187.881 98.4C186.921 97.84 186.177 97.056 185.649 96.048C185.121 95.04 184.857 93.872 184.857 92.544C184.857 91.264 185.129 90.128 185.673 89.136C186.217 88.144 186.969 87.368 187.929 86.808C188.889 86.232 189.985 85.944 191.217 85.944C192.225 85.944 193.137 86.136 193.953 86.52C194.785 86.888 195.481 87.416 196.041 88.104C196.601 88.792 197.001 89.592 197.241 90.504C197.481 91.4 197.521 92.368 197.361 93.408H186.825V91.296H193.833C193.801 90.4 193.537 89.696 193.041 89.184C192.561 88.656 191.929 88.392 191.145 88.392C190.521 88.392 189.993 88.552 189.561 88.872C189.129 89.192 188.793 89.664 188.553 90.288C188.329 90.896 188.217 91.648 188.217 92.544C188.217 93.424 188.329 94.168 188.553 94.776C188.777 95.384 189.113 95.848 189.561 96.168C190.009 96.488 190.553 96.648 191.193 96.648C191.929 96.648 192.537 96.472 193.017 96.12C193.497 95.768 193.833 95.28 194.025 94.656H197.337C196.969 96.096 196.257 97.216 195.201 98.016C194.145 98.816 192.833 99.216 191.265 99.216ZM207.227 99V97.416C206.811 98.008 206.283 98.464 205.643 98.784C205.003 99.088 204.243 99.24 203.363 99.24C202.035 99.24 200.963 98.88 200.147 98.16C199.331 97.44 198.923 96.48 198.923 95.28C198.923 94.032 199.419 93.08 200.411 92.424C201.403 91.768 202.827 91.44 204.683 91.44C205.051 91.44 205.403 91.456 205.739 91.488C206.075 91.504 206.435 91.536 206.819 91.584V90.816C206.819 90.096 206.627 89.536 206.243 89.136C205.859 88.736 205.315 88.536 204.611 88.536C203.891 88.536 203.323 88.736 202.907 89.136C202.491 89.536 202.251 90.096 202.187 90.816H199.187C199.251 89.824 199.515 88.968 199.979 88.248C200.459 87.512 201.091 86.944 201.875 86.544C202.675 86.144 203.587 85.944 204.611 85.944C206.291 85.944 207.595 86.384 208.523 87.264C209.467 88.144 209.939 89.368 209.939 90.936V99H207.227ZM202.067 95.184C202.067 95.712 202.243 96.136 202.595 96.456C202.963 96.776 203.459 96.936 204.083 96.936C204.931 96.936 205.595 96.72 206.075 96.288C206.571 95.84 206.819 95.248 206.819 94.512V93.6C206.435 93.536 206.091 93.496 205.787 93.48C205.483 93.448 205.187 93.432 204.899 93.432C203.971 93.432 203.267 93.576 202.787 93.864C202.307 94.152 202.067 94.592 202.067 95.184ZM220.595 95.76V98.664C220.195 98.872 219.787 99.016 219.371 99.096C218.971 99.192 218.523 99.24 218.027 99.24C217.163 99.24 216.403 99.08 215.747 98.76C215.107 98.424 214.611 97.928 214.259 97.272C213.907 96.6 213.731 95.792 213.731 94.848V89.04H211.139V86.184H213.731V82.392H217.043V86.184H220.715V89.04H217.043V94.08C217.043 94.816 217.203 95.352 217.523 95.688C217.859 96.008 218.323 96.168 218.915 96.168C219.235 96.168 219.539 96.136 219.827 96.072C220.115 95.992 220.371 95.888 220.595 95.76ZM228.038 99.216C226.758 99.216 225.63 98.944 224.654 98.4C223.694 97.84 222.95 97.056 222.422 96.048C221.894 95.04 221.63 93.872 221.63 92.544C221.63 91.264 221.902 90.128 222.446 89.136C222.99 88.144 223.742 87.368 224.702 86.808C225.662 86.232 226.758 85.944 227.99 85.944C228.998 85.944 229.91 86.136 230.726 86.52C231.558 86.888 232.254 87.416 232.814 88.104C233.374 88.792 233.774 89.592 234.014 90.504C234.254 91.4 234.294 92.368 234.134 93.408H223.598V91.296H230.606C230.574 90.4 230.31 89.696 229.814 89.184C229.334 88.656 228.702 88.392 227.918 88.392C227.294 88.392 226.766 88.552 226.334 88.872C225.902 89.192 225.566 89.664 225.326 90.288C225.102 90.896 224.99 91.648 224.99 92.544C224.99 93.424 225.102 94.168 225.326 94.776C225.55 95.384 225.886 95.848 226.334 96.168C226.782 96.488 227.326 96.648 227.966 96.648C228.702 96.648 229.31 96.472 229.79 96.12C230.27 95.768 230.606 95.28 230.798 94.656H234.11C233.742 96.096 233.03 97.216 231.974 98.016C230.918 98.816 229.606 99.216 228.038 99.216Z" fill="#383838"/>
<path d="M117.328 96.864C117.328 97.52 117.12 98.064 116.704 98.496C116.288 98.912 115.752 99.12 115.096 99.12C114.44 99.12 113.896 98.912 113.464 98.496C113.048 98.064 112.84 97.52 112.84 96.864C112.84 96.192 113.048 95.648 113.464 95.232C113.896 94.8 114.44 94.584 115.096 94.584C115.752 94.584 116.288 94.8 116.704 95.232C117.12 95.648 117.328 96.192 117.328 96.864Z" fill="#8560F7"/>
<path d="M240.281 96.864C240.281 97.52 240.073 98.064 239.657 98.496C239.241 98.912 238.705 99.12 238.049 99.12C237.393 99.12 236.849 98.912 236.417 98.496C236.001 98.064 235.793 97.52 235.793 96.864C235.793 96.192 236.001 95.648 236.417 95.232C236.849 94.8 237.393 94.584 238.049 94.584C238.705 94.584 239.241 94.8 239.657 95.232C240.073 95.648 240.281 96.192 240.281 96.864Z" fill="#BEFC6E"/>
</svg>
