<svg width="173" height="44" viewBox="0 0 173 44" fill="none" xmlns="http://www.w3.org/2000/svg">
<path d="M25.555 9.9647V33.7644C25.555 33.8549 25.519 33.9416 25.4549 34.0056C25.3909 34.0695 25.304 34.1055 25.2134 34.1055H15.4082C15.3904 34.1063 15.3729 34.1016 15.358 34.0919C15.3431 34.0822 15.3317 34.0681 15.3253 34.0515C15.3189 34.035 15.3179 34.0168 15.3225 33.9997C15.327 33.9825 15.3369 33.9673 15.3506 33.956L17.0392 32.446C19.3001 30.4578 20.8025 27.7496 21.2913 24.7811L21.3489 24.3787C21.461 23.5841 21.488 22.7798 21.4295 21.9795C21.3998 20.8243 21.0251 19.7043 20.3535 18.7632C19.682 17.8221 18.7442 17.1028 17.6604 16.6977C16.5767 16.2926 15.3964 16.2202 14.2712 16.4896C13.1459 16.7591 12.1269 17.3582 11.3449 18.21C10.563 19.0618 10.0537 20.1276 9.88253 21.2705C9.71133 22.4134 9.886 23.5813 10.3841 24.6244C10.8822 25.6674 11.6811 26.5381 12.6781 27.1246C13.6752 27.7111 14.825 27.9867 15.98 27.916C16.0262 27.9129 16.0727 27.9193 16.1163 27.9348C16.16 27.9503 16.2 27.9747 16.2338 28.0063C16.2677 28.0379 16.2946 28.0762 16.313 28.1187C16.3314 28.1612 16.3408 28.207 16.3407 28.2533C16.3139 30.8977 14.0381 33.2662 12.9444 33.8717C12.787 33.9813 12.6052 34.0511 12.4148 34.0748C12.2191 34.0748 12.0311 34.0748 11.8123 34.0748C5.2384 34.1093 0 28.5484 0 21.6653C0 14.7821 5.2384 9.13305 11.8123 9.13305C15.7843 9.13305 17.9334 10.7005 19.2343 13.0958C19.2424 13.1136 19.2565 13.128 19.2741 13.1366C19.2917 13.1452 19.3117 13.1474 19.3307 13.1429C19.3497 13.1383 19.3666 13.1274 19.3784 13.1118C19.3903 13.0962 19.3963 13.077 19.3955 13.0575V9.9647C19.3955 9.87423 19.4315 9.78747 19.4956 9.72351C19.5596 9.65954 19.6465 9.62361 19.7371 9.62361H25.2134C25.304 9.62361 25.3909 9.65954 25.4549 9.72351C25.519 9.78747 25.555 9.87423 25.555 9.9647Z" fill="#7172D3"/>
<path d="M28.8513 9.63894H34.2241C34.3258 9.63894 34.4235 9.67931 34.4954 9.75119C34.5674 9.82306 34.6078 9.92054 34.6078 10.0222V12.176C34.6081 12.2507 34.632 12.3234 34.6763 12.3836C34.7206 12.4438 34.7828 12.4884 34.8541 12.511C34.9254 12.5336 35.002 12.533 35.0729 12.5093C35.1439 12.4856 35.2054 12.44 35.2487 12.3792C36.5881 10.3939 38.7026 9.13305 42.2371 9.13305C48.811 9.13305 54.0494 14.7783 54.0494 21.6653C54.0494 28.5522 48.8148 34.1093 42.2409 34.1093C38.764 34.1093 36.6802 32.9136 35.3332 31.0433C35.2917 30.9804 35.2309 30.9326 35.1599 30.907C35.089 30.8815 35.0116 30.8796 34.9395 30.9016C34.8673 30.9236 34.8042 30.9683 34.7597 31.0291C34.7151 31.0899 34.6915 31.1635 34.6923 31.2388V42.353C34.6913 42.4458 34.6536 42.5345 34.5875 42.5998C34.5214 42.6651 34.4322 42.7017 34.3392 42.7017H28.8513C28.7584 42.7017 28.6691 42.6651 28.603 42.5998C28.5369 42.5345 28.4993 42.4458 28.4983 42.353V9.99152C28.4983 9.89801 28.5355 9.80833 28.6017 9.74221C28.6679 9.67608 28.7577 9.63894 28.8513 9.63894ZM41.2316 28.5024C45.1844 28.5024 47.8477 25.2448 47.8477 21.6039C47.8477 17.8864 45.1844 14.7055 41.2316 14.7055C37.1407 14.7323 34.5388 17.9477 34.5388 21.6653C34.5388 25.3828 37.1407 28.5024 41.2316 28.5024Z" fill="#7172D3"/>
<path d="M55.0169 21.6187C55.0169 14.7202 60.3512 9.0865 67.7502 9.0865C75.1492 9.0865 80.4836 14.7317 80.4836 21.6187C80.4836 28.5057 75.1492 34.1088 67.7502 34.1088C60.3512 34.1088 55.0169 28.5018 55.0169 21.6187ZM67.7502 28.4559C71.703 28.4559 74.2743 25.3362 74.2743 21.6187C74.2743 17.9012 71.6992 14.7202 67.7502 14.7202C63.8013 14.7202 61.2262 17.8897 61.2262 21.6187C61.2262 25.3477 63.7975 28.4559 67.7502 28.4559Z" fill="#7172D3"/>
<path d="M80.1804 29.6825L83.8377 26.3521C83.9072 26.2907 83.9981 26.2591 84.0907 26.2641C84.1834 26.2692 84.2703 26.3104 84.3328 26.3789C86.0098 28.1764 87.7867 29.0617 89.7055 29.0617C91.8162 29.0617 93.0135 28.0077 93.0135 26.582C93.0135 25.3442 92.4149 24.6658 88.6463 23.7843C82.2566 22.2705 81.2933 19.377 81.2933 16.3493C81.2933 12.1719 84.6014 9.06761 90.2082 9.06761C93.9538 9.06761 96.4866 9.97591 98.8583 12.9193C98.8873 12.9559 98.9088 12.9979 98.9214 13.0428C98.934 13.0878 98.9376 13.1348 98.9319 13.1812C98.9262 13.2275 98.9113 13.2723 98.8881 13.3129C98.865 13.3534 98.8339 13.389 98.7969 13.4175L94.8748 16.4145C94.8363 16.4433 94.7922 16.464 94.7454 16.4752C94.6985 16.4864 94.6499 16.488 94.6025 16.4797C94.555 16.4714 94.5097 16.4536 94.4695 16.4272C94.4292 16.4008 94.3947 16.3665 94.3682 16.3263C93.2515 14.7205 91.8622 14.0728 90.3464 14.0728C88.6463 14.0728 87.3607 14.7167 87.3607 16.1845C87.3607 17.0085 87.7444 17.7443 90.5766 18.484C97.519 20.2738 99.1269 22.8415 99.1269 26.4249C99.1269 30.7978 95.1281 34.109 89.8436 34.109C85.9254 34.109 82.744 32.8175 80.1651 30.1922C80.1316 30.1583 80.1053 30.1179 80.0878 30.0736C80.0704 30.0292 80.0621 29.9817 80.0636 29.9341C80.065 29.8865 80.0761 29.8396 80.0962 29.7964C80.1163 29.7531 80.1449 29.7144 80.1804 29.6825Z" fill="#7172D3"/>
<path d="M103.08 26.118V15.2683C103.08 15.222 103.071 15.1761 103.053 15.1333C103.035 15.0906 103.009 15.0517 102.976 15.0189C102.943 14.9862 102.905 14.9602 102.862 14.9425C102.819 14.9248 102.773 14.9157 102.727 14.9157H100.075C99.9818 14.9157 99.8926 14.8791 99.8265 14.8138C99.7604 14.7485 99.7227 14.6598 99.7217 14.5669V9.99094C99.7217 9.89743 99.7589 9.80775 99.8251 9.74163C99.8913 9.6755 99.9811 9.63836 100.075 9.63836H102.727C102.82 9.63836 102.909 9.60174 102.975 9.53644C103.041 9.47115 103.079 9.38245 103.08 9.2896V5.13519C103.079 5.04837 103.111 4.96452 103.169 4.90002C103.228 4.83552 103.308 4.79502 103.394 4.78644L108.894 4.2154C108.942 4.21116 108.991 4.21702 109.037 4.23259C109.084 4.24816 109.126 4.27311 109.162 4.30587C109.198 4.33863 109.227 4.3785 109.247 4.42295C109.267 4.4674 109.277 4.51548 109.277 4.56415V9.2896C109.278 9.38245 109.316 9.47115 109.382 9.53644C109.448 9.60174 109.538 9.63836 109.631 9.63836H113.979C114.072 9.63836 114.162 9.6755 114.228 9.74163C114.294 9.80775 114.332 9.89743 114.332 9.99094V14.5631C114.331 14.6559 114.293 14.7446 114.227 14.8099C114.161 14.8752 114.072 14.9119 113.979 14.9118H109.634C109.541 14.9118 109.451 14.949 109.385 15.0151C109.319 15.0812 109.281 15.1709 109.281 15.2644V25.7961C109.281 27.3291 110.018 27.9998 111.2 27.9998H113.426C113.519 27.9998 113.607 28.0365 113.673 28.1019C113.738 28.1673 113.775 28.256 113.775 28.3485V33.1544C113.775 33.2473 113.739 33.3364 113.673 33.4024C113.608 33.4684 113.519 33.506 113.426 33.507H110.375C105.651 33.507 103.08 31.3034 103.08 26.118Z" fill="#7172D3"/>
<path d="M116.757 9.63897H122.076C122.169 9.63897 122.259 9.67611 122.325 9.74224C122.392 9.80836 122.429 9.89804 122.429 9.99155V12.2067C122.43 12.2845 122.457 12.3597 122.506 12.4202C122.555 12.4808 122.623 12.5232 122.699 12.5409C122.775 12.5585 122.854 12.5503 122.925 12.5175C122.996 12.4847 123.053 12.4293 123.089 12.36C124.221 10.1678 126.339 8.98744 129.486 9.07559C129.578 9.07858 129.665 9.11704 129.728 9.18284C129.792 9.24864 129.828 9.33663 129.828 9.42818V14.5637C129.827 14.6565 129.789 14.7453 129.723 14.8105C129.657 14.8758 129.568 14.9125 129.475 14.9125H128.945C125.361 14.9125 122.601 17.3001 122.601 21.2935V33.1551C122.601 33.2479 122.565 33.337 122.499 33.403C122.434 33.469 122.345 33.5066 122.252 33.5076H116.757C116.664 33.5066 116.575 33.469 116.51 33.403C116.444 33.337 116.407 33.2479 116.407 33.1551V9.99155C116.407 9.8987 116.444 9.8096 116.51 9.74358C116.575 9.67757 116.664 9.63998 116.757 9.63897Z" fill="#7172D3"/>
<path d="M142.634 0H144.411C144.504 0 144.594 0.0371476 144.66 0.103271C144.727 0.169394 144.764 0.259076 144.764 0.352588V4.92857C144.763 5.02141 144.725 5.11012 144.659 5.17541C144.593 5.24071 144.504 5.27733 144.411 5.27732H143.144C141.306 5.27732 140.431 6.24311 140.431 8.12486V9.2746C140.432 9.36745 140.47 9.45615 140.536 9.52144C140.602 9.58674 140.691 9.62336 140.784 9.62335H144.952C144.998 9.62335 145.044 9.63247 145.087 9.65019C145.13 9.66791 145.169 9.69388 145.201 9.72662C145.234 9.75937 145.26 9.79823 145.278 9.84101C145.296 9.88379 145.305 9.92964 145.305 9.97594V14.5634C145.304 14.6563 145.266 14.745 145.2 14.8103C145.134 14.8756 145.045 14.9122 144.952 14.9122H140.796C140.702 14.9122 140.612 14.9493 140.546 15.0154C140.48 15.0816 140.443 15.1713 140.443 15.2648V33.1548C140.443 33.2476 140.406 33.3367 140.34 33.4027C140.275 33.4688 140.186 33.5064 140.093 33.5074H134.59C134.496 33.5074 134.407 33.4702 134.34 33.4041C134.274 33.338 134.237 33.2483 134.237 33.1548V15.2686C134.237 15.1757 134.2 15.0866 134.135 15.0206C134.07 14.9546 133.981 14.917 133.888 14.916H131.247C131.155 14.916 131.066 14.8793 131.001 14.8139C130.935 14.7485 130.898 14.6597 130.898 14.5673V9.99127C130.898 9.89842 130.935 9.80931 131 9.7433C131.066 9.67729 131.155 9.63969 131.247 9.63868H133.903C133.949 9.63868 133.994 9.62966 134.037 9.61214C134.079 9.59461 134.118 9.56892 134.15 9.53654C134.183 9.50415 134.208 9.4657 134.226 9.42339C134.243 9.38108 134.252 9.33573 134.252 9.28993V8.38163C134.253 6.16099 135.136 4.03141 136.708 2.4601C138.279 0.888791 140.41 0.00405945 142.634 0Z" fill="#7172D3"/>
<path d="M146.982 42.3294L147.796 37.0942C147.802 37.0466 147.817 37.0007 147.842 36.9593C147.866 36.9179 147.899 36.8819 147.938 36.8536C147.976 36.8252 148.021 36.8051 148.067 36.7944C148.114 36.7837 148.163 36.7827 148.21 36.7914C149.01 36.9582 149.826 37.0379 150.643 37.0291C153.034 37.0291 154.55 35.4961 155.248 33.4035L155.532 32.5144C155.559 32.4375 155.559 32.3537 155.532 32.2768L146.322 10.1136C146.3 10.06 146.292 10.0019 146.297 9.9443C146.303 9.88671 146.323 9.83142 146.355 9.78331C146.387 9.73521 146.431 9.69577 146.482 9.66848C146.533 9.64119 146.59 9.62689 146.648 9.62684H153.36C153.434 9.62681 153.505 9.64969 153.565 9.69229C153.625 9.73488 153.67 9.79507 153.694 9.86445L158.257 23.2781C158.503 23.9641 158.733 24.746 158.929 25.5278C158.947 25.604 158.99 25.6719 159.052 25.7204C159.114 25.769 159.19 25.7954 159.268 25.7954C159.347 25.7954 159.423 25.769 159.485 25.7204C159.546 25.6719 159.59 25.604 159.608 25.5278C159.792 24.7666 160.016 24.0157 160.28 23.2781L164.839 9.88361C164.863 9.81454 164.908 9.75467 164.968 9.71215C165.028 9.66963 165.099 9.64653 165.173 9.646H171.747C171.805 9.64605 171.862 9.66035 171.913 9.68764C171.964 9.71493 172.007 9.75437 172.04 9.80247C172.072 9.85058 172.092 9.90587 172.098 9.96346C172.103 10.0211 172.095 10.0792 172.073 10.1327L161.711 35.0438C159.646 39.8574 156.665 43.0997 151.058 43.0997C149.768 43.1178 148.481 42.9892 147.22 42.7165C147.141 42.6903 147.074 42.6371 147.03 42.5663C146.987 42.4955 146.97 42.4116 146.982 42.3294Z" fill="#7172D3"/>
</svg>
