<svg width="19" height="19" viewBox="0 0 19 19" fill="none" xmlns="http://www.w3.org/2000/svg">
<mask id="path-1-inside-1_1_335" fill="white">
<path fill-rule="evenodd" clip-rule="evenodd" d="M10.1053 1.90735e-06C10.6843 1.09859 11.0118 2.34897 11.0118 3.67545C11.0118 8.05292 7.44496 11.6016 3.04498 11.6016C1.96661 11.6016 0.938285 11.3884 0.000244141 11.0021C0.728889 15.5358 4.67786 19 9.44011 19C14.7201 19 19.0003 14.7416 19.0003 9.48867C19.0003 4.45817 15.075 0.339819 10.1053 1.90735e-06Z"/>
</mask>
<path d="M10.1053 1.90735e-06L10.2418 -1.99534L6.66405 -2.23998L8.33601 0.932476L10.1053 1.90735e-06ZM0.000244141 11.0021L0.761774 9.15279L-2.54124 7.79266L-1.97442 11.3195L0.000244141 11.0021ZM8.33601 0.932476C8.7673 1.75082 9.01184 2.68199 9.01184 3.67545H13.0118C13.0118 2.01595 12.6013 0.446363 11.8747 -0.932472L8.33601 0.932476ZM9.01184 3.67545C9.01184 6.93869 6.35007 9.60156 3.04498 9.60156V13.6016C8.53984 13.6016 13.0118 9.16715 13.0118 3.67545H9.01184ZM3.04498 9.60156C2.2322 9.60156 1.46229 9.44126 0.761774 9.15279L-0.761286 12.8515C0.414275 13.3356 1.70102 13.6016 3.04498 13.6016V9.60156ZM9.44011 17C5.66797 17 2.54899 14.2568 1.9749 10.6848L-1.97442 11.3195C-1.09121 16.8148 3.68776 21 9.44011 21V17ZM17.0003 9.48867C17.0003 13.6274 13.6252 17 9.44011 17V21C15.815 21 21.0003 15.8559 21.0003 9.48867H17.0003ZM9.96889 1.99534C13.9053 2.26451 17.0003 5.52573 17.0003 9.48867H21.0003C21.0003 3.39062 16.2446 -1.58487 10.2418 -1.99534L9.96889 1.99534Z" fill="#D9D9D9" mask="url(#path-1-inside-1_1_335)"/>
</svg>
